<mxfile host="app.diagrams.net" agent="Mozilla/5.0 (Macintosh; Intel Mac OS X 10_15_7) AppleWebKit/537.36 (KHTML, like Gecko) Chrome/137.0.0.0 Safari/537.36" version="26.0.6">
  <diagram id="C5RBs43oDa-KdzZeNtuy" name="Page-1">
    <mxGraphModel dx="1555" dy="934" grid="1" gridSize="10" guides="1" tooltips="1" connect="1" arrows="1" fold="1" page="1" pageScale="1" pageWidth="827" pageHeight="1169" math="0" shadow="0">
      <root>
        <mxCell id="WIyWlLk6GJQsqaUBKTNV-0" />
        <mxCell id="WIyWlLk6GJQsqaUBKTNV-1" parent="WIyWlLk6GJQsqaUBKTNV-0" />
        <mxCell id="Pm77CY4639vnkf3gye1O-27" value="" style="edgeStyle=orthogonalEdgeStyle;rounded=0;orthogonalLoop=1;jettySize=auto;html=1;" edge="1" parent="WIyWlLk6GJQsqaUBKTNV-1" source="Pm77CY4639vnkf3gye1O-4" target="Pm77CY4639vnkf3gye1O-0">
          <mxGeometry relative="1" as="geometry" />
        </mxCell>
        <mxCell id="Pm77CY4639vnkf3gye1O-4" value="" style="verticalLabelPosition=bottom;html=1;verticalAlign=top;align=center;strokeColor=none;fillColor=#00BEF2;shape=mxgraph.azure.script_file;pointerEvents=1;" vertex="1" parent="WIyWlLk6GJQsqaUBKTNV-1">
          <mxGeometry x="450.25" y="155" width="47.5" height="50" as="geometry" />
        </mxCell>
        <mxCell id="Pm77CY4639vnkf3gye1O-5" value="&lt;font style=&quot;font-size: 9px;&quot;&gt;Chrome&amp;nbsp;&lt;/font&gt;&lt;div&gt;&lt;font style=&quot;font-size: 9px;&quot;&gt;(background.js)&lt;/font&gt;&lt;/div&gt;" style="text;html=1;align=center;verticalAlign=middle;whiteSpace=wrap;rounded=0;" vertex="1" parent="WIyWlLk6GJQsqaUBKTNV-1">
          <mxGeometry x="444" y="205" width="60" height="30" as="geometry" />
        </mxCell>
        <mxCell id="Pm77CY4639vnkf3gye1O-6" value="" style="image;aspect=fixed;html=1;points=[];align=center;fontSize=12;image=img/lib/azure2/identity/Azure_AD_B2C.svg;" vertex="1" parent="WIyWlLk6GJQsqaUBKTNV-1">
          <mxGeometry x="719.5" y="155.28" width="59" height="54.72" as="geometry" />
        </mxCell>
        <mxCell id="Pm77CY4639vnkf3gye1O-7" value="" style="endArrow=classic;html=1;rounded=0;exitX=1.026;exitY=0.42;exitDx=0;exitDy=0;exitPerimeter=0;entryX=0.017;entryY=0.391;entryDx=0;entryDy=0;entryPerimeter=0;" edge="1" parent="WIyWlLk6GJQsqaUBKTNV-1" source="Pm77CY4639vnkf3gye1O-4" target="Pm77CY4639vnkf3gye1O-6">
          <mxGeometry width="50" height="50" relative="1" as="geometry">
            <mxPoint x="497.75" y="170" as="sourcePoint" />
            <mxPoint x="770" y="171" as="targetPoint" />
          </mxGeometry>
        </mxCell>
        <mxCell id="Pm77CY4639vnkf3gye1O-8" value="&lt;font style=&quot;font-size: 9px;&quot;&gt;Azure AD Auth Server&lt;/font&gt;" style="text;html=1;align=center;verticalAlign=middle;whiteSpace=wrap;rounded=0;" vertex="1" parent="WIyWlLk6GJQsqaUBKTNV-1">
          <mxGeometry x="699" y="130" width="100" height="30" as="geometry" />
        </mxCell>
        <mxCell id="Pm77CY4639vnkf3gye1O-9" value="" style="endArrow=classic;html=1;rounded=0;entryX=0.943;entryY=0.639;entryDx=0;entryDy=0;entryPerimeter=0;exitX=0.013;exitY=0.59;exitDx=0;exitDy=0;exitPerimeter=0;" edge="1" parent="WIyWlLk6GJQsqaUBKTNV-1" source="Pm77CY4639vnkf3gye1O-6" target="Pm77CY4639vnkf3gye1O-4">
          <mxGeometry width="50" height="50" relative="1" as="geometry">
            <mxPoint x="707" y="192" as="sourcePoint" />
            <mxPoint x="768" y="251" as="targetPoint" />
          </mxGeometry>
        </mxCell>
        <mxCell id="Pm77CY4639vnkf3gye1O-10" value="&lt;font style=&quot;font-size: 9px;&quot;&gt;OAuth 2.0 Authorization Code Flow with PKCE&lt;/font&gt;" style="text;html=1;align=center;verticalAlign=middle;whiteSpace=wrap;rounded=0;" vertex="1" parent="WIyWlLk6GJQsqaUBKTNV-1">
          <mxGeometry x="512.5" y="150" width="190" height="30" as="geometry" />
        </mxCell>
        <mxCell id="Pm77CY4639vnkf3gye1O-11" value="&lt;font style=&quot;font-size: 9px;&quot;&gt;Returns Access Token&lt;/font&gt;" style="text;html=1;align=center;verticalAlign=middle;whiteSpace=wrap;rounded=0;" vertex="1" parent="WIyWlLk6GJQsqaUBKTNV-1">
          <mxGeometry x="513" y="185" width="180" height="30" as="geometry" />
        </mxCell>
        <mxCell id="Pm77CY4639vnkf3gye1O-12" value="&lt;font style=&quot;font-size: 9px;&quot;&gt;Click &quot;Authenticate&quot;&lt;/font&gt;" style="text;html=1;align=center;verticalAlign=middle;whiteSpace=wrap;rounded=0;" vertex="1" parent="WIyWlLk6GJQsqaUBKTNV-1">
          <mxGeometry x="331.5" y="150" width="95" height="30" as="geometry" />
        </mxCell>
        <mxCell id="Pm77CY4639vnkf3gye1O-16" value="&lt;font style=&quot;font-size: 9px;&quot;&gt;Returns Access Token&lt;/font&gt;" style="text;html=1;align=center;verticalAlign=middle;whiteSpace=wrap;rounded=0;" vertex="1" parent="WIyWlLk6GJQsqaUBKTNV-1">
          <mxGeometry x="314" y="180" width="130" height="30" as="geometry" />
        </mxCell>
        <mxCell id="Pm77CY4639vnkf3gye1O-18" value="" style="group" vertex="1" connectable="0" parent="WIyWlLk6GJQsqaUBKTNV-1">
          <mxGeometry x="29" y="155" width="60" height="80" as="geometry" />
        </mxCell>
        <mxCell id="Pm77CY4639vnkf3gye1O-13" value="" style="strokeWidth=2;html=1;shape=mxgraph.flowchart.database;whiteSpace=wrap;" vertex="1" parent="Pm77CY4639vnkf3gye1O-18">
          <mxGeometry x="5" width="50" height="50" as="geometry" />
        </mxCell>
        <mxCell id="Pm77CY4639vnkf3gye1O-17" value="&lt;font style=&quot;font-size: 9px;&quot;&gt;Chrome.storage&lt;/font&gt;" style="text;html=1;align=center;verticalAlign=middle;whiteSpace=wrap;rounded=0;" vertex="1" parent="Pm77CY4639vnkf3gye1O-18">
          <mxGeometry y="50" width="60" height="30" as="geometry" />
        </mxCell>
        <mxCell id="Pm77CY4639vnkf3gye1O-22" value="&lt;font style=&quot;font-size: 9px;&quot;&gt;Retrieve/ Update Access Token&lt;/font&gt;" style="text;html=1;align=center;verticalAlign=middle;whiteSpace=wrap;rounded=0;" vertex="1" parent="WIyWlLk6GJQsqaUBKTNV-1">
          <mxGeometry x="89" y="180" width="150" height="30" as="geometry" />
        </mxCell>
        <mxCell id="Pm77CY4639vnkf3gye1O-24" value="" style="edgeStyle=orthogonalEdgeStyle;rounded=0;orthogonalLoop=1;jettySize=auto;html=1;exitX=1;exitY=0.5;exitDx=0;exitDy=0;exitPerimeter=0;" edge="1" parent="WIyWlLk6GJQsqaUBKTNV-1" source="Pm77CY4639vnkf3gye1O-13" target="Pm77CY4639vnkf3gye1O-0">
          <mxGeometry relative="1" as="geometry">
            <mxPoint x="49" y="185.03999999999996" as="sourcePoint" />
            <mxPoint x="179" y="110" as="targetPoint" />
            <Array as="points">
              <mxPoint x="84" y="180" />
            </Array>
          </mxGeometry>
        </mxCell>
        <mxCell id="Pm77CY4639vnkf3gye1O-25" value="" style="edgeStyle=orthogonalEdgeStyle;rounded=0;orthogonalLoop=1;jettySize=auto;html=1;entryX=0.991;entryY=0.618;entryDx=0;entryDy=0;entryPerimeter=0;" edge="1" parent="WIyWlLk6GJQsqaUBKTNV-1">
          <mxGeometry relative="1" as="geometry">
            <mxPoint x="239" y="186" as="sourcePoint" />
            <mxPoint x="80.81999999999984" y="185.89999999999998" as="targetPoint" />
            <Array as="points">
              <mxPoint x="239" y="186" />
            </Array>
          </mxGeometry>
        </mxCell>
        <mxCell id="Pm77CY4639vnkf3gye1O-26" value="" style="edgeStyle=orthogonalEdgeStyle;rounded=0;orthogonalLoop=1;jettySize=auto;html=1;entryX=0.016;entryY=0.358;entryDx=0;entryDy=0;entryPerimeter=0;" edge="1" parent="WIyWlLk6GJQsqaUBKTNV-1" source="Pm77CY4639vnkf3gye1O-0" target="Pm77CY4639vnkf3gye1O-4">
          <mxGeometry relative="1" as="geometry">
            <Array as="points">
              <mxPoint x="329" y="173" />
              <mxPoint x="329" y="173" />
            </Array>
          </mxGeometry>
        </mxCell>
        <mxCell id="Pm77CY4639vnkf3gye1O-29" value="&lt;font style=&quot;font-size: 9px;&quot;&gt;Returns Access Token&lt;/font&gt;" style="text;html=1;align=center;verticalAlign=middle;whiteSpace=wrap;rounded=0;" vertex="1" parent="WIyWlLk6GJQsqaUBKTNV-1">
          <mxGeometry x="89" y="155" width="150" height="30" as="geometry" />
        </mxCell>
        <mxCell id="Pm77CY4639vnkf3gye1O-1" value="&lt;font style=&quot;font-size: 9px;&quot;&gt;User&lt;/font&gt;" style="text;html=1;align=center;verticalAlign=middle;whiteSpace=wrap;rounded=0;" vertex="1" parent="WIyWlLk6GJQsqaUBKTNV-1">
          <mxGeometry x="239" y="120" width="60" height="30" as="geometry" />
        </mxCell>
        <mxCell id="Pm77CY4639vnkf3gye1O-0" value="" style="sketch=0;outlineConnect=0;fontColor=#232F3E;gradientColor=none;fillColor=#232F3D;strokeColor=none;dashed=0;verticalLabelPosition=bottom;verticalAlign=top;align=center;html=1;fontSize=12;fontStyle=0;aspect=fixed;pointerEvents=1;shape=mxgraph.aws4.user;" vertex="1" parent="WIyWlLk6GJQsqaUBKTNV-1">
          <mxGeometry x="239" y="150" width="60" height="60" as="geometry" />
        </mxCell>
        <mxCell id="Pm77CY4639vnkf3gye1O-33" value="" style="group" vertex="1" connectable="0" parent="WIyWlLk6GJQsqaUBKTNV-1">
          <mxGeometry x="30" y="310" width="60" height="80" as="geometry" />
        </mxCell>
        <mxCell id="Pm77CY4639vnkf3gye1O-31" value="" style="verticalLabelPosition=bottom;html=1;verticalAlign=top;align=center;strokeColor=none;fillColor=#00BEF2;shape=mxgraph.azure.script_file;pointerEvents=1;" vertex="1" parent="Pm77CY4639vnkf3gye1O-33">
          <mxGeometry x="6.25" width="47.5" height="50" as="geometry" />
        </mxCell>
        <mxCell id="Pm77CY4639vnkf3gye1O-32" value="&lt;font style=&quot;font-size: 9px;&quot;&gt;Chrome&amp;nbsp;&lt;/font&gt;&lt;div&gt;&lt;font style=&quot;font-size: 9px;&quot;&gt;(background.js)&lt;/font&gt;&lt;/div&gt;" style="text;html=1;align=center;verticalAlign=middle;whiteSpace=wrap;rounded=0;" vertex="1" parent="Pm77CY4639vnkf3gye1O-33">
          <mxGeometry y="50" width="60" height="30" as="geometry" />
        </mxCell>
        <mxCell id="Pm77CY4639vnkf3gye1O-35" style="edgeStyle=orthogonalEdgeStyle;rounded=0;orthogonalLoop=1;jettySize=auto;html=1;entryX=0.5;entryY=0;entryDx=0;entryDy=0;entryPerimeter=0;" edge="1" parent="WIyWlLk6GJQsqaUBKTNV-1" source="Pm77CY4639vnkf3gye1O-0" target="Pm77CY4639vnkf3gye1O-31">
          <mxGeometry relative="1" as="geometry">
            <Array as="points">
              <mxPoint x="269" y="260" />
              <mxPoint x="60" y="260" />
            </Array>
          </mxGeometry>
        </mxCell>
        <mxCell id="Pm77CY4639vnkf3gye1O-36" value="&lt;font style=&quot;font-size: 9px;&quot;&gt;Select Message,&amp;nbsp;&lt;/font&gt;&lt;span style=&quot;font-size: 9px; background-color: transparent; color: light-dark(rgb(0, 0, 0), rgb(255, 255, 255));&quot;&gt;Click &quot;Analyse&quot;&lt;/span&gt;" style="text;html=1;align=center;verticalAlign=middle;whiteSpace=wrap;rounded=0;" vertex="1" parent="WIyWlLk6GJQsqaUBKTNV-1">
          <mxGeometry x="94" y="235" width="140" height="30" as="geometry" />
        </mxCell>
        <mxCell id="Pm77CY4639vnkf3gye1O-42" value="" style="group" vertex="1" connectable="0" parent="WIyWlLk6GJQsqaUBKTNV-1">
          <mxGeometry x="260" y="310" width="108.5" height="80" as="geometry" />
        </mxCell>
        <mxCell id="Pm77CY4639vnkf3gye1O-34" value="" style="image;aspect=fixed;perimeter=ellipsePerimeter;html=1;align=center;shadow=0;dashed=0;spacingTop=3;image=img/lib/active_directory/database_server.svg;" vertex="1" parent="Pm77CY4639vnkf3gye1O-42">
          <mxGeometry x="33.75" width="41" height="50" as="geometry" />
        </mxCell>
        <mxCell id="Pm77CY4639vnkf3gye1O-41" value="&lt;font style=&quot;font-size: 9px;&quot;&gt;Microsoft Graph API Server&lt;/font&gt;" style="text;html=1;align=center;verticalAlign=middle;whiteSpace=wrap;rounded=0;" vertex="1" parent="Pm77CY4639vnkf3gye1O-42">
          <mxGeometry y="50" width="108.5" height="30" as="geometry" />
        </mxCell>
        <mxCell id="Pm77CY4639vnkf3gye1O-43" style="edgeStyle=orthogonalEdgeStyle;rounded=0;orthogonalLoop=1;jettySize=auto;html=1;" edge="1" parent="WIyWlLk6GJQsqaUBKTNV-1" source="Pm77CY4639vnkf3gye1O-31" target="Pm77CY4639vnkf3gye1O-34">
          <mxGeometry relative="1" as="geometry">
            <Array as="points">
              <mxPoint x="190" y="330" />
              <mxPoint x="190" y="330" />
            </Array>
          </mxGeometry>
        </mxCell>
        <mxCell id="Pm77CY4639vnkf3gye1O-44" value="&lt;font style=&quot;font-size: 9px;&quot;&gt;https://graph.microsoft.com/v1.0/me/messages&lt;/font&gt;" style="text;html=1;align=center;verticalAlign=middle;whiteSpace=wrap;rounded=0;" vertex="1" parent="WIyWlLk6GJQsqaUBKTNV-1">
          <mxGeometry x="150" y="300" width="80" height="30" as="geometry" />
        </mxCell>
        <mxCell id="Pm77CY4639vnkf3gye1O-45" style="edgeStyle=orthogonalEdgeStyle;rounded=0;orthogonalLoop=1;jettySize=auto;html=1;entryX=0.92;entryY=0.502;entryDx=0;entryDy=0;entryPerimeter=0;" edge="1" parent="WIyWlLk6GJQsqaUBKTNV-1">
          <mxGeometry relative="1" as="geometry">
            <mxPoint x="296.9000000000001" y="340.0000000000001" as="sourcePoint" />
            <mxPoint x="83.10000000000005" y="340.1" as="targetPoint" />
          </mxGeometry>
        </mxCell>
        <mxCell id="Pm77CY4639vnkf3gye1O-46" value="&lt;font style=&quot;font-size: 9px;&quot;&gt;Returns subject, body, sender&lt;/font&gt;" style="text;html=1;align=center;verticalAlign=middle;whiteSpace=wrap;rounded=0;" vertex="1" parent="WIyWlLk6GJQsqaUBKTNV-1">
          <mxGeometry x="120" y="335" width="130" height="30" as="geometry" />
        </mxCell>
        <mxCell id="Pm77CY4639vnkf3gye1O-53" value="" style="edgeStyle=orthogonalEdgeStyle;rounded=0;orthogonalLoop=1;jettySize=auto;html=1;entryX=0.5;entryY=1;entryDx=0;entryDy=0;" edge="1" parent="WIyWlLk6GJQsqaUBKTNV-1" source="Pm77CY4639vnkf3gye1O-48" target="Pm77CY4639vnkf3gye1O-32">
          <mxGeometry relative="1" as="geometry" />
        </mxCell>
        <mxCell id="Pm77CY4639vnkf3gye1O-57" style="edgeStyle=orthogonalEdgeStyle;rounded=0;orthogonalLoop=1;jettySize=auto;html=1;entryX=0;entryY=0.5;entryDx=0;entryDy=0;" edge="1" parent="WIyWlLk6GJQsqaUBKTNV-1" source="Pm77CY4639vnkf3gye1O-48" target="Pm77CY4639vnkf3gye1O-55">
          <mxGeometry relative="1" as="geometry" />
        </mxCell>
        <mxCell id="Pm77CY4639vnkf3gye1O-48" value="" style="sketch=0;aspect=fixed;pointerEvents=1;shadow=0;dashed=0;html=1;strokeColor=none;labelPosition=center;verticalLabelPosition=bottom;verticalAlign=top;align=center;fillColor=#00188D;shape=mxgraph.azure.script_file" vertex="1" parent="WIyWlLk6GJQsqaUBKTNV-1">
          <mxGeometry x="36.5" y="470" width="47" height="50" as="geometry" />
        </mxCell>
        <mxCell id="Pm77CY4639vnkf3gye1O-49" value="" style="edgeStyle=orthogonalEdgeStyle;rounded=0;orthogonalLoop=1;jettySize=auto;html=1;" edge="1" parent="WIyWlLk6GJQsqaUBKTNV-1">
          <mxGeometry relative="1" as="geometry">
            <mxPoint x="50" y="389.9999999999999" as="sourcePoint" />
            <mxPoint x="50" y="469.9999999999999" as="targetPoint" />
          </mxGeometry>
        </mxCell>
        <mxCell id="Pm77CY4639vnkf3gye1O-50" value="&lt;font style=&quot;font-size: 9px;&quot;&gt;Native Host&lt;/font&gt;" style="text;html=1;align=center;verticalAlign=middle;whiteSpace=wrap;rounded=0;" vertex="1" parent="WIyWlLk6GJQsqaUBKTNV-1">
          <mxGeometry x="29" y="520" width="60" height="30" as="geometry" />
        </mxCell>
        <mxCell id="Pm77CY4639vnkf3gye1O-51" value="&lt;font style=&quot;font-size: 9px;&quot;&gt;Send subject, body, sender&lt;/font&gt;" style="text;html=1;align=center;verticalAlign=middle;whiteSpace=wrap;rounded=0;" vertex="1" parent="WIyWlLk6GJQsqaUBKTNV-1">
          <mxGeometry x="-20" y="420" width="70" height="30" as="geometry" />
        </mxCell>
        <mxCell id="Pm77CY4639vnkf3gye1O-54" value="&lt;font style=&quot;font-size: 9px;&quot;&gt;Returns verdict and other metadata&lt;/font&gt;" style="text;html=1;align=center;verticalAlign=middle;whiteSpace=wrap;rounded=0;" vertex="1" parent="WIyWlLk6GJQsqaUBKTNV-1">
          <mxGeometry x="60" y="420" width="70" height="30" as="geometry" />
        </mxCell>
        <mxCell id="Pm77CY4639vnkf3gye1O-63" style="edgeStyle=orthogonalEdgeStyle;rounded=0;orthogonalLoop=1;jettySize=auto;html=1;entryX=0;entryY=0.5;entryDx=0;entryDy=0;exitX=0.5;exitY=0;exitDx=0;exitDy=0;" edge="1" parent="WIyWlLk6GJQsqaUBKTNV-1" source="Pm77CY4639vnkf3gye1O-55" target="Pm77CY4639vnkf3gye1O-58">
          <mxGeometry relative="1" as="geometry">
            <Array as="points">
              <mxPoint x="174" y="475" />
            </Array>
          </mxGeometry>
        </mxCell>
        <mxCell id="Pm77CY4639vnkf3gye1O-92" style="edgeStyle=orthogonalEdgeStyle;rounded=0;orthogonalLoop=1;jettySize=auto;html=1;entryX=0;entryY=0.5;entryDx=0;entryDy=0;" edge="1" parent="WIyWlLk6GJQsqaUBKTNV-1" source="Pm77CY4639vnkf3gye1O-55" target="Pm77CY4639vnkf3gye1O-61">
          <mxGeometry relative="1" as="geometry">
            <Array as="points">
              <mxPoint x="174" y="592" />
              <mxPoint x="203" y="592" />
            </Array>
          </mxGeometry>
        </mxCell>
        <mxCell id="Pm77CY4639vnkf3gye1O-55" value="&lt;font style=&quot;font-size: 9px;&quot;&gt;Body contains URL?&amp;nbsp;&lt;/font&gt;" style="rhombus;whiteSpace=wrap;html=1;" vertex="1" parent="WIyWlLk6GJQsqaUBKTNV-1">
          <mxGeometry x="138.5" y="495" width="71.5" height="65" as="geometry" />
        </mxCell>
        <mxCell id="Pm77CY4639vnkf3gye1O-64" value="" style="edgeStyle=orthogonalEdgeStyle;rounded=0;orthogonalLoop=1;jettySize=auto;html=1;" edge="1" parent="WIyWlLk6GJQsqaUBKTNV-1" source="Pm77CY4639vnkf3gye1O-58" target="Pm77CY4639vnkf3gye1O-59">
          <mxGeometry relative="1" as="geometry" />
        </mxCell>
        <mxCell id="Pm77CY4639vnkf3gye1O-74" style="edgeStyle=orthogonalEdgeStyle;rounded=0;orthogonalLoop=1;jettySize=auto;html=1;entryX=1;entryY=0.5;entryDx=0;entryDy=0;exitX=0.5;exitY=0;exitDx=0;exitDy=0;" edge="1" parent="WIyWlLk6GJQsqaUBKTNV-1" source="Pm77CY4639vnkf3gye1O-58" target="Pm77CY4639vnkf3gye1O-79">
          <mxGeometry relative="1" as="geometry">
            <mxPoint x="310.0000000000173" y="422.5" as="targetPoint" />
          </mxGeometry>
        </mxCell>
        <mxCell id="Pm77CY4639vnkf3gye1O-58" value="&lt;span style=&quot;font-size: 9px;&quot;&gt;TypoSquatting&lt;/span&gt;" style="rounded=1;whiteSpace=wrap;html=1;fontSize=12;glass=0;strokeWidth=1;shadow=0;" vertex="1" parent="WIyWlLk6GJQsqaUBKTNV-1">
          <mxGeometry x="222.5" y="460" width="87.5" height="30" as="geometry" />
        </mxCell>
        <mxCell id="Pm77CY4639vnkf3gye1O-65" value="" style="edgeStyle=orthogonalEdgeStyle;rounded=0;orthogonalLoop=1;jettySize=auto;html=1;" edge="1" parent="WIyWlLk6GJQsqaUBKTNV-1" source="Pm77CY4639vnkf3gye1O-59" target="Pm77CY4639vnkf3gye1O-60">
          <mxGeometry relative="1" as="geometry" />
        </mxCell>
        <mxCell id="Pm77CY4639vnkf3gye1O-76" style="edgeStyle=orthogonalEdgeStyle;rounded=0;orthogonalLoop=1;jettySize=auto;html=1;entryX=0.5;entryY=1;entryDx=0;entryDy=0;exitX=0.5;exitY=0;exitDx=0;exitDy=0;" edge="1" parent="WIyWlLk6GJQsqaUBKTNV-1" source="Pm77CY4639vnkf3gye1O-59" target="Pm77CY4639vnkf3gye1O-81">
          <mxGeometry relative="1" as="geometry">
            <mxPoint x="463.12000000001717" y="422.5" as="targetPoint" />
            <Array as="points">
              <mxPoint x="314" y="460" />
            </Array>
          </mxGeometry>
        </mxCell>
        <mxCell id="Pm77CY4639vnkf3gye1O-59" value="&lt;font style=&quot;font-size: 9px;&quot;&gt;Regex&lt;br&gt;(Body)&lt;/font&gt;" style="rounded=1;whiteSpace=wrap;html=1;fontSize=12;glass=0;strokeWidth=1;shadow=0;" vertex="1" parent="WIyWlLk6GJQsqaUBKTNV-1">
          <mxGeometry x="368.5" y="460" width="81.5" height="30" as="geometry" />
        </mxCell>
        <mxCell id="Pm77CY4639vnkf3gye1O-66" style="edgeStyle=orthogonalEdgeStyle;rounded=0;orthogonalLoop=1;jettySize=auto;html=1;exitX=0.5;exitY=1;exitDx=0;exitDy=0;" edge="1" parent="WIyWlLk6GJQsqaUBKTNV-1" source="Pm77CY4639vnkf3gye1O-60" target="Pm77CY4639vnkf3gye1O-61">
          <mxGeometry relative="1" as="geometry">
            <Array as="points">
              <mxPoint x="540" y="490" />
              <mxPoint x="540" y="530" />
              <mxPoint x="279" y="530" />
            </Array>
          </mxGeometry>
        </mxCell>
        <mxCell id="Pm77CY4639vnkf3gye1O-78" style="edgeStyle=orthogonalEdgeStyle;rounded=0;orthogonalLoop=1;jettySize=auto;html=1;entryX=0.5;entryY=1;entryDx=0;entryDy=0;" edge="1" parent="WIyWlLk6GJQsqaUBKTNV-1" source="Pm77CY4639vnkf3gye1O-60" target="Pm77CY4639vnkf3gye1O-84">
          <mxGeometry relative="1" as="geometry">
            <mxPoint x="600" y="430" as="targetPoint" />
            <Array as="points">
              <mxPoint x="559" y="440" />
              <mxPoint x="430" y="440" />
            </Array>
          </mxGeometry>
        </mxCell>
        <mxCell id="Pm77CY4639vnkf3gye1O-60" value="&lt;font style=&quot;font-size: 9px;&quot;&gt;Linear SVM Model&lt;/font&gt;" style="rounded=1;whiteSpace=wrap;html=1;fontSize=12;glass=0;strokeWidth=1;shadow=0;" vertex="1" parent="WIyWlLk6GJQsqaUBKTNV-1">
          <mxGeometry x="497.75" y="460" width="81.5" height="30" as="geometry" />
        </mxCell>
        <mxCell id="Pm77CY4639vnkf3gye1O-68" value="" style="edgeStyle=orthogonalEdgeStyle;rounded=0;orthogonalLoop=1;jettySize=auto;html=1;" edge="1" parent="WIyWlLk6GJQsqaUBKTNV-1" source="Pm77CY4639vnkf3gye1O-61" target="Pm77CY4639vnkf3gye1O-62">
          <mxGeometry relative="1" as="geometry" />
        </mxCell>
        <mxCell id="Pm77CY4639vnkf3gye1O-88" style="edgeStyle=orthogonalEdgeStyle;rounded=0;orthogonalLoop=1;jettySize=auto;html=1;entryX=0;entryY=0.5;entryDx=0;entryDy=0;exitX=0.5;exitY=1;exitDx=0;exitDy=0;" edge="1" parent="WIyWlLk6GJQsqaUBKTNV-1" source="Pm77CY4639vnkf3gye1O-61" target="Pm77CY4639vnkf3gye1O-87">
          <mxGeometry relative="1" as="geometry" />
        </mxCell>
        <mxCell id="Pm77CY4639vnkf3gye1O-61" value="&lt;font style=&quot;font-size: 9px;&quot;&gt;Regex &lt;br&gt;(Header, Sender)&lt;/font&gt;" style="rounded=1;whiteSpace=wrap;html=1;fontSize=12;glass=0;strokeWidth=1;shadow=0;" vertex="1" parent="WIyWlLk6GJQsqaUBKTNV-1">
          <mxGeometry x="222.5" y="575" width="97.5" height="35" as="geometry" />
        </mxCell>
        <mxCell id="Pm77CY4639vnkf3gye1O-90" style="edgeStyle=orthogonalEdgeStyle;rounded=0;orthogonalLoop=1;jettySize=auto;html=1;entryX=0.5;entryY=1;entryDx=0;entryDy=0;" edge="1" parent="WIyWlLk6GJQsqaUBKTNV-1" source="Pm77CY4639vnkf3gye1O-62" target="Pm77CY4639vnkf3gye1O-50">
          <mxGeometry relative="1" as="geometry">
            <Array as="points">
              <mxPoint x="409" y="670" />
              <mxPoint x="59" y="670" />
            </Array>
          </mxGeometry>
        </mxCell>
        <mxCell id="Pm77CY4639vnkf3gye1O-62" value="&lt;font style=&quot;font-size: 9px;&quot;&gt;NLP Checks&amp;nbsp;&lt;/font&gt;" style="rounded=1;whiteSpace=wrap;html=1;fontSize=12;glass=0;strokeWidth=1;shadow=0;" vertex="1" parent="WIyWlLk6GJQsqaUBKTNV-1">
          <mxGeometry x="368.5" y="580" width="81.5" height="25" as="geometry" />
        </mxCell>
        <mxCell id="Pm77CY4639vnkf3gye1O-69" value="&lt;font style=&quot;font-size: 9px;&quot;&gt;Yes&lt;/font&gt;" style="text;html=1;align=center;verticalAlign=middle;whiteSpace=wrap;rounded=0;" vertex="1" parent="WIyWlLk6GJQsqaUBKTNV-1">
          <mxGeometry x="174.5" y="450" width="44" height="30" as="geometry" />
        </mxCell>
        <mxCell id="Pm77CY4639vnkf3gye1O-70" value="&lt;font size=&quot;1&quot;&gt;No&lt;/font&gt;" style="text;html=1;align=center;verticalAlign=middle;whiteSpace=wrap;rounded=0;" vertex="1" parent="WIyWlLk6GJQsqaUBKTNV-1">
          <mxGeometry x="174.5" y="585" width="44" height="30" as="geometry" />
        </mxCell>
        <mxCell id="Pm77CY4639vnkf3gye1O-79" value="&lt;font style=&quot;font-size: 9px;&quot;&gt;Return Early&lt;/font&gt;" style="ellipse;whiteSpace=wrap;html=1;align=center;newEdgeStyle={&quot;edgeStyle&quot;:&quot;entityRelationEdgeStyle&quot;,&quot;startArrow&quot;:&quot;none&quot;,&quot;endArrow&quot;:&quot;none&quot;,&quot;segment&quot;:10,&quot;curved&quot;:1,&quot;sourcePerimeterSpacing&quot;:0,&quot;targetPerimeterSpacing&quot;:0};treeFolding=1;treeMoving=1;" vertex="1" parent="WIyWlLk6GJQsqaUBKTNV-1">
          <mxGeometry x="150" y="420" width="60" height="30" as="geometry" />
        </mxCell>
        <mxCell id="Pm77CY4639vnkf3gye1O-80" value="&lt;font style=&quot;font-size: 9px;&quot;&gt;Verdict: Suspicious&lt;/font&gt;" style="text;html=1;align=center;verticalAlign=middle;whiteSpace=wrap;rounded=0;" vertex="1" parent="WIyWlLk6GJQsqaUBKTNV-1">
          <mxGeometry x="210" y="410" width="84" height="30" as="geometry" />
        </mxCell>
        <mxCell id="Pm77CY4639vnkf3gye1O-81" value="&lt;font style=&quot;font-size: 9px;&quot;&gt;Return Early&lt;/font&gt;" style="ellipse;whiteSpace=wrap;html=1;align=center;newEdgeStyle={&quot;edgeStyle&quot;:&quot;entityRelationEdgeStyle&quot;,&quot;startArrow&quot;:&quot;none&quot;,&quot;endArrow&quot;:&quot;none&quot;,&quot;segment&quot;:10,&quot;curved&quot;:1,&quot;sourcePerimeterSpacing&quot;:0,&quot;targetPerimeterSpacing&quot;:0};treeFolding=1;treeMoving=1;" vertex="1" parent="WIyWlLk6GJQsqaUBKTNV-1">
          <mxGeometry x="284.25" y="390" width="60" height="30" as="geometry" />
        </mxCell>
        <mxCell id="Pm77CY4639vnkf3gye1O-83" value="&lt;font style=&quot;font-size: 9px;&quot;&gt;Verdict: Suspicious&lt;/font&gt;" style="text;html=1;align=center;verticalAlign=middle;whiteSpace=wrap;rounded=0;" vertex="1" parent="WIyWlLk6GJQsqaUBKTNV-1">
          <mxGeometry x="330" y="430" width="84" height="30" as="geometry" />
        </mxCell>
        <mxCell id="Pm77CY4639vnkf3gye1O-84" value="&lt;font style=&quot;font-size: 9px;&quot;&gt;Return Early&lt;/font&gt;" style="ellipse;whiteSpace=wrap;html=1;align=center;newEdgeStyle={&quot;edgeStyle&quot;:&quot;entityRelationEdgeStyle&quot;,&quot;startArrow&quot;:&quot;none&quot;,&quot;endArrow&quot;:&quot;none&quot;,&quot;segment&quot;:10,&quot;curved&quot;:1,&quot;sourcePerimeterSpacing&quot;:0,&quot;targetPerimeterSpacing&quot;:0};treeFolding=1;treeMoving=1;" vertex="1" parent="WIyWlLk6GJQsqaUBKTNV-1">
          <mxGeometry x="400" y="390" width="60" height="30" as="geometry" />
        </mxCell>
        <mxCell id="Pm77CY4639vnkf3gye1O-85" value="&lt;font style=&quot;font-size: 9px;&quot;&gt;Verdict:&amp;nbsp;&lt;/font&gt;&lt;div&gt;&lt;font style=&quot;font-size: 9px;&quot;&gt;Suspicious/ Phishing&lt;/font&gt;&lt;/div&gt;" style="text;html=1;align=center;verticalAlign=middle;whiteSpace=wrap;rounded=0;" vertex="1" parent="WIyWlLk6GJQsqaUBKTNV-1">
          <mxGeometry x="460" y="410" width="90" height="30" as="geometry" />
        </mxCell>
        <mxCell id="Pm77CY4639vnkf3gye1O-86" value="&lt;font style=&quot;font-size: 9px;&quot;&gt;No Verdict&lt;/font&gt;" style="text;html=1;align=center;verticalAlign=middle;whiteSpace=wrap;rounded=0;" vertex="1" parent="WIyWlLk6GJQsqaUBKTNV-1">
          <mxGeometry x="382.5" y="520" width="44" height="30" as="geometry" />
        </mxCell>
        <mxCell id="Pm77CY4639vnkf3gye1O-87" value="&lt;font style=&quot;font-size: 9px;&quot;&gt;Return Early&lt;/font&gt;" style="ellipse;whiteSpace=wrap;html=1;align=center;newEdgeStyle={&quot;edgeStyle&quot;:&quot;entityRelationEdgeStyle&quot;,&quot;startArrow&quot;:&quot;none&quot;,&quot;endArrow&quot;:&quot;none&quot;,&quot;segment&quot;:10,&quot;curved&quot;:1,&quot;sourcePerimeterSpacing&quot;:0,&quot;targetPerimeterSpacing&quot;:0};treeFolding=1;treeMoving=1;" vertex="1" parent="WIyWlLk6GJQsqaUBKTNV-1">
          <mxGeometry x="344.25" y="620" width="60" height="30" as="geometry" />
        </mxCell>
        <mxCell id="Pm77CY4639vnkf3gye1O-89" value="&lt;font style=&quot;font-size: 9px;&quot;&gt;Verdict: Suspicious&lt;/font&gt;" style="text;html=1;align=center;verticalAlign=middle;whiteSpace=wrap;rounded=0;" vertex="1" parent="WIyWlLk6GJQsqaUBKTNV-1">
          <mxGeometry x="260" y="630" width="84" height="30" as="geometry" />
        </mxCell>
        <mxCell id="Pm77CY4639vnkf3gye1O-91" value="&lt;font style=&quot;font-size: 9px;&quot;&gt;Return Verdict: Phishing/ Suspicious/ Non-Phishing and other meta-data&lt;/font&gt;" style="text;html=1;align=center;verticalAlign=middle;whiteSpace=wrap;rounded=0;" vertex="1" parent="WIyWlLk6GJQsqaUBKTNV-1">
          <mxGeometry x="83.5" y="670" width="310" height="30" as="geometry" />
        </mxCell>
      </root>
    </mxGraphModel>
  </diagram>
</mxfile>
